M48
INCH,TZ
T1C0.024
T2C0.032
%
G90
G05
T1
X40000Y-43800
X40750Y-46600
X40900Y-45400
X41750Y-52850
X42000Y-47100
X42000Y-48250
X42000Y-49050
X42150Y-51650
X42150Y-54400
X43950Y-46000
X44200Y-53100
X44200Y-53650
X45650Y-49350
X45650Y-50700
X46250Y-40000
X46650Y-51750
X48050Y-43800
X48050Y-51750
X48350Y-55300
X48850Y-41700
X49050Y-53900
X50500Y-51650
X50600Y-55550
X51600Y-44950
X51600Y-46150
X51650Y-50850
X53300Y-49100
X53900Y-40300
X54950Y-50050
X55200Y-53250
X55200Y-54750
X56850Y-45150
X56850Y-45800
X56850Y-46450
X58050Y-49050
X58450Y-47000
X59800Y-47300
X62100Y-55650
X64200Y-55650
T2
X40750Y-37500
X40750Y-56500
X41750Y-37500
X41750Y-56500
X42750Y-37500
X42750Y-56500
X43750Y-37500
X43750Y-56500
X44750Y-37500
X44750Y-56500
X45750Y-37500
X45750Y-56500
X46750Y-56500
X47750Y-37500
X47750Y-56500
X48750Y-37500
X49350Y-56500
X49750Y-37500
X50350Y-56500
X50750Y-37500
X51350Y-56500
X51750Y-37500
X52350Y-56500
X52750Y-37500
X53350Y-56500
X54350Y-56500
X55350Y-56500
X56350Y-56500
T0
M30
