G04 #@! TF.GenerationSoftware,KiCad,Pcbnew,no-vcs-found-23a23d3~58~ubuntu16.04.1*
G04 #@! TF.CreationDate,2017-03-20T15:48:47+07:00*
G04 #@! TF.ProjectId,esp32-cellular-shield,65737033322D63656C6C756C61722D73,rev?*
G04 #@! TF.FileFunction,Legend,Bot*
G04 #@! TF.FilePolarity,Positive*
%FSLAX46Y46*%
G04 Gerber Fmt 4.6, Leading zero omitted, Abs format (unit mm)*
G04 Created by KiCad (PCBNEW no-vcs-found-23a23d3~58~ubuntu16.04.1) date Mon Mar 20 15:48:47 2017*
%MOMM*%
%LPD*%
G01*
G04 APERTURE LIST*
%ADD10C,0.100000*%
%ADD11C,0.250000*%
%ADD12C,0.200000*%
G04 APERTURE END LIST*
D10*
D11*
X155197619Y-99923809D02*
X154197619Y-99590476D01*
X155197619Y-99257142D01*
X154197619Y-98923809D02*
X154864285Y-98923809D01*
X155197619Y-98923809D02*
X155150000Y-98971428D01*
X155102380Y-98923809D01*
X155150000Y-98876190D01*
X155197619Y-98923809D01*
X155102380Y-98923809D01*
X154864285Y-98447619D02*
X154197619Y-98447619D01*
X154769047Y-98447619D02*
X154816666Y-98400000D01*
X154864285Y-98304761D01*
X154864285Y-98161904D01*
X154816666Y-98066666D01*
X154721428Y-98019047D01*
X154197619Y-98019047D01*
X151611904Y-98900000D02*
X151707142Y-98852380D01*
X151850000Y-98852380D01*
X151992857Y-98900000D01*
X152088095Y-98995238D01*
X152135714Y-99090476D01*
X152183333Y-99280952D01*
X152183333Y-99423809D01*
X152135714Y-99614285D01*
X152088095Y-99709523D01*
X151992857Y-99804761D01*
X151850000Y-99852380D01*
X151754761Y-99852380D01*
X151611904Y-99804761D01*
X151564285Y-99757142D01*
X151564285Y-99423809D01*
X151754761Y-99423809D01*
X151135714Y-99852380D02*
X151135714Y-98852380D01*
X150564285Y-99852380D01*
X150564285Y-98852380D01*
X150088095Y-99852380D02*
X150088095Y-98852380D01*
X149850000Y-98852380D01*
X149707142Y-98900000D01*
X149611904Y-98995238D01*
X149564285Y-99090476D01*
X149516666Y-99280952D01*
X149516666Y-99423809D01*
X149564285Y-99614285D01*
X149611904Y-99709523D01*
X149707142Y-99804761D01*
X149850000Y-99852380D01*
X150088095Y-99852380D01*
X147597619Y-99290476D02*
X147597619Y-99766666D01*
X147121428Y-99814285D01*
X147169047Y-99766666D01*
X147216666Y-99671428D01*
X147216666Y-99433333D01*
X147169047Y-99338095D01*
X147121428Y-99290476D01*
X147026190Y-99242857D01*
X146788095Y-99242857D01*
X146692857Y-99290476D01*
X146645238Y-99338095D01*
X146597619Y-99433333D01*
X146597619Y-99671428D01*
X146645238Y-99766666D01*
X146692857Y-99814285D01*
X147597619Y-98957142D02*
X146597619Y-98623809D01*
X147597619Y-98290476D01*
X142071428Y-99838095D02*
X142071428Y-99504761D01*
X141547619Y-99361904D02*
X141547619Y-99838095D01*
X142547619Y-99838095D01*
X142547619Y-99361904D01*
X141547619Y-98933333D02*
X142547619Y-98933333D01*
X141547619Y-98361904D01*
X142547619Y-98361904D01*
X139950000Y-99302380D02*
X139997619Y-99397619D01*
X139997619Y-99540476D01*
X139950000Y-99683333D01*
X139854761Y-99778571D01*
X139759523Y-99826190D01*
X139569047Y-99873809D01*
X139426190Y-99873809D01*
X139235714Y-99826190D01*
X139140476Y-99778571D01*
X139045238Y-99683333D01*
X138997619Y-99540476D01*
X138997619Y-99445238D01*
X139045238Y-99302380D01*
X139092857Y-99254761D01*
X139426190Y-99254761D01*
X139426190Y-99445238D01*
X138997619Y-98826190D02*
X139997619Y-98826190D01*
X139997619Y-98445238D01*
X139950000Y-98350000D01*
X139902380Y-98302380D01*
X139807142Y-98254761D01*
X139664285Y-98254761D01*
X139569047Y-98302380D01*
X139521428Y-98350000D01*
X139473809Y-98445238D01*
X139473809Y-98826190D01*
X138997619Y-97826190D02*
X139997619Y-97826190D01*
X139997619Y-97159523D02*
X139997619Y-96969047D01*
X139950000Y-96873809D01*
X139854761Y-96778571D01*
X139664285Y-96730952D01*
X139330952Y-96730952D01*
X139140476Y-96778571D01*
X139045238Y-96873809D01*
X138997619Y-96969047D01*
X138997619Y-97159523D01*
X139045238Y-97254761D01*
X139140476Y-97350000D01*
X139330952Y-97397619D01*
X139664285Y-97397619D01*
X139854761Y-97350000D01*
X139950000Y-97254761D01*
X139997619Y-97159523D01*
X139997619Y-96111904D02*
X139997619Y-96016666D01*
X139950000Y-95921428D01*
X139902380Y-95873809D01*
X139807142Y-95826190D01*
X139616666Y-95778571D01*
X139378571Y-95778571D01*
X139188095Y-95826190D01*
X139092857Y-95873809D01*
X139045238Y-95921428D01*
X138997619Y-96016666D01*
X138997619Y-96111904D01*
X139045238Y-96207142D01*
X139092857Y-96254761D01*
X139188095Y-96302380D01*
X139378571Y-96350000D01*
X139616666Y-96350000D01*
X139807142Y-96302380D01*
X139902380Y-96254761D01*
X139950000Y-96207142D01*
X139997619Y-96111904D01*
X139997619Y-94921428D02*
X139997619Y-95111904D01*
X139950000Y-95207142D01*
X139902380Y-95254761D01*
X139759523Y-95350000D01*
X139569047Y-95397619D01*
X139188095Y-95397619D01*
X139092857Y-95350000D01*
X139045238Y-95302380D01*
X138997619Y-95207142D01*
X138997619Y-95016666D01*
X139045238Y-94921428D01*
X139092857Y-94873809D01*
X139188095Y-94826190D01*
X139426190Y-94826190D01*
X139521428Y-94873809D01*
X139569047Y-94921428D01*
X139616666Y-95016666D01*
X139616666Y-95207142D01*
X139569047Y-95302380D01*
X139521428Y-95350000D01*
X139426190Y-95397619D01*
X137400000Y-99302380D02*
X137447619Y-99397619D01*
X137447619Y-99540476D01*
X137400000Y-99683333D01*
X137304761Y-99778571D01*
X137209523Y-99826190D01*
X137019047Y-99873809D01*
X136876190Y-99873809D01*
X136685714Y-99826190D01*
X136590476Y-99778571D01*
X136495238Y-99683333D01*
X136447619Y-99540476D01*
X136447619Y-99445238D01*
X136495238Y-99302380D01*
X136542857Y-99254761D01*
X136876190Y-99254761D01*
X136876190Y-99445238D01*
X136447619Y-98826190D02*
X137447619Y-98826190D01*
X137447619Y-98445238D01*
X137400000Y-98350000D01*
X137352380Y-98302380D01*
X137257142Y-98254761D01*
X137114285Y-98254761D01*
X137019047Y-98302380D01*
X136971428Y-98350000D01*
X136923809Y-98445238D01*
X136923809Y-98826190D01*
X136447619Y-97826190D02*
X137447619Y-97826190D01*
X137447619Y-97159523D02*
X137447619Y-96969047D01*
X137400000Y-96873809D01*
X137304761Y-96778571D01*
X137114285Y-96730952D01*
X136780952Y-96730952D01*
X136590476Y-96778571D01*
X136495238Y-96873809D01*
X136447619Y-96969047D01*
X136447619Y-97159523D01*
X136495238Y-97254761D01*
X136590476Y-97350000D01*
X136780952Y-97397619D01*
X137114285Y-97397619D01*
X137304761Y-97350000D01*
X137400000Y-97254761D01*
X137447619Y-97159523D01*
X136447619Y-95778571D02*
X136447619Y-96350000D01*
X136447619Y-96064285D02*
X137447619Y-96064285D01*
X137304761Y-96159523D01*
X137209523Y-96254761D01*
X137161904Y-96350000D01*
X136447619Y-94826190D02*
X136447619Y-95397619D01*
X136447619Y-95111904D02*
X137447619Y-95111904D01*
X137304761Y-95207142D01*
X137209523Y-95302380D01*
X137161904Y-95397619D01*
X160200000Y-99302380D02*
X160247619Y-99397619D01*
X160247619Y-99540476D01*
X160200000Y-99683333D01*
X160104761Y-99778571D01*
X160009523Y-99826190D01*
X159819047Y-99873809D01*
X159676190Y-99873809D01*
X159485714Y-99826190D01*
X159390476Y-99778571D01*
X159295238Y-99683333D01*
X159247619Y-99540476D01*
X159247619Y-99445238D01*
X159295238Y-99302380D01*
X159342857Y-99254761D01*
X159676190Y-99254761D01*
X159676190Y-99445238D01*
X159247619Y-98826190D02*
X160247619Y-98826190D01*
X160247619Y-98445238D01*
X160200000Y-98350000D01*
X160152380Y-98302380D01*
X160057142Y-98254761D01*
X159914285Y-98254761D01*
X159819047Y-98302380D01*
X159771428Y-98350000D01*
X159723809Y-98445238D01*
X159723809Y-98826190D01*
X159247619Y-97826190D02*
X160247619Y-97826190D01*
X160247619Y-97159523D02*
X160247619Y-96969047D01*
X160200000Y-96873809D01*
X160104761Y-96778571D01*
X159914285Y-96730952D01*
X159580952Y-96730952D01*
X159390476Y-96778571D01*
X159295238Y-96873809D01*
X159247619Y-96969047D01*
X159247619Y-97159523D01*
X159295238Y-97254761D01*
X159390476Y-97350000D01*
X159580952Y-97397619D01*
X159914285Y-97397619D01*
X160104761Y-97350000D01*
X160200000Y-97254761D01*
X160247619Y-97159523D01*
X160247619Y-96397619D02*
X160247619Y-95778571D01*
X159866666Y-96111904D01*
X159866666Y-95969047D01*
X159819047Y-95873809D01*
X159771428Y-95826190D01*
X159676190Y-95778571D01*
X159438095Y-95778571D01*
X159342857Y-95826190D01*
X159295238Y-95873809D01*
X159247619Y-95969047D01*
X159247619Y-96254761D01*
X159295238Y-96350000D01*
X159342857Y-96397619D01*
X160247619Y-94921428D02*
X160247619Y-95111904D01*
X160200000Y-95207142D01*
X160152380Y-95254761D01*
X160009523Y-95350000D01*
X159819047Y-95397619D01*
X159438095Y-95397619D01*
X159342857Y-95350000D01*
X159295238Y-95302380D01*
X159247619Y-95207142D01*
X159247619Y-95016666D01*
X159295238Y-94921428D01*
X159342857Y-94873809D01*
X159438095Y-94826190D01*
X159676190Y-94826190D01*
X159771428Y-94873809D01*
X159819047Y-94921428D01*
X159866666Y-95016666D01*
X159866666Y-95207142D01*
X159819047Y-95302380D01*
X159771428Y-95350000D01*
X159676190Y-95397619D01*
X162750000Y-99302380D02*
X162797619Y-99397619D01*
X162797619Y-99540476D01*
X162750000Y-99683333D01*
X162654761Y-99778571D01*
X162559523Y-99826190D01*
X162369047Y-99873809D01*
X162226190Y-99873809D01*
X162035714Y-99826190D01*
X161940476Y-99778571D01*
X161845238Y-99683333D01*
X161797619Y-99540476D01*
X161797619Y-99445238D01*
X161845238Y-99302380D01*
X161892857Y-99254761D01*
X162226190Y-99254761D01*
X162226190Y-99445238D01*
X161797619Y-98826190D02*
X162797619Y-98826190D01*
X162797619Y-98445238D01*
X162750000Y-98350000D01*
X162702380Y-98302380D01*
X162607142Y-98254761D01*
X162464285Y-98254761D01*
X162369047Y-98302380D01*
X162321428Y-98350000D01*
X162273809Y-98445238D01*
X162273809Y-98826190D01*
X161797619Y-97826190D02*
X162797619Y-97826190D01*
X162797619Y-97159523D02*
X162797619Y-96969047D01*
X162750000Y-96873809D01*
X162654761Y-96778571D01*
X162464285Y-96730952D01*
X162130952Y-96730952D01*
X161940476Y-96778571D01*
X161845238Y-96873809D01*
X161797619Y-96969047D01*
X161797619Y-97159523D01*
X161845238Y-97254761D01*
X161940476Y-97350000D01*
X162130952Y-97397619D01*
X162464285Y-97397619D01*
X162654761Y-97350000D01*
X162750000Y-97254761D01*
X162797619Y-97159523D01*
X162797619Y-96397619D02*
X162797619Y-95778571D01*
X162416666Y-96111904D01*
X162416666Y-95969047D01*
X162369047Y-95873809D01*
X162321428Y-95826190D01*
X162226190Y-95778571D01*
X161988095Y-95778571D01*
X161892857Y-95826190D01*
X161845238Y-95873809D01*
X161797619Y-95969047D01*
X161797619Y-96254761D01*
X161845238Y-96350000D01*
X161892857Y-96397619D01*
X161797619Y-95302380D02*
X161797619Y-95111904D01*
X161845238Y-95016666D01*
X161892857Y-94969047D01*
X162035714Y-94873809D01*
X162226190Y-94826190D01*
X162607142Y-94826190D01*
X162702380Y-94873809D01*
X162750000Y-94921428D01*
X162797619Y-95016666D01*
X162797619Y-95207142D01*
X162750000Y-95302380D01*
X162702380Y-95350000D01*
X162607142Y-95397619D01*
X162369047Y-95397619D01*
X162273809Y-95350000D01*
X162226190Y-95302380D01*
X162178571Y-95207142D01*
X162178571Y-95016666D01*
X162226190Y-94921428D01*
X162273809Y-94873809D01*
X162369047Y-94826190D01*
X165300000Y-99302380D02*
X165347619Y-99397619D01*
X165347619Y-99540476D01*
X165300000Y-99683333D01*
X165204761Y-99778571D01*
X165109523Y-99826190D01*
X164919047Y-99873809D01*
X164776190Y-99873809D01*
X164585714Y-99826190D01*
X164490476Y-99778571D01*
X164395238Y-99683333D01*
X164347619Y-99540476D01*
X164347619Y-99445238D01*
X164395238Y-99302380D01*
X164442857Y-99254761D01*
X164776190Y-99254761D01*
X164776190Y-99445238D01*
X164347619Y-98826190D02*
X165347619Y-98826190D01*
X165347619Y-98445238D01*
X165300000Y-98350000D01*
X165252380Y-98302380D01*
X165157142Y-98254761D01*
X165014285Y-98254761D01*
X164919047Y-98302380D01*
X164871428Y-98350000D01*
X164823809Y-98445238D01*
X164823809Y-98826190D01*
X164347619Y-97826190D02*
X165347619Y-97826190D01*
X165347619Y-97159523D02*
X165347619Y-96969047D01*
X165300000Y-96873809D01*
X165204761Y-96778571D01*
X165014285Y-96730952D01*
X164680952Y-96730952D01*
X164490476Y-96778571D01*
X164395238Y-96873809D01*
X164347619Y-96969047D01*
X164347619Y-97159523D01*
X164395238Y-97254761D01*
X164490476Y-97350000D01*
X164680952Y-97397619D01*
X165014285Y-97397619D01*
X165204761Y-97350000D01*
X165300000Y-97254761D01*
X165347619Y-97159523D01*
X164347619Y-95778571D02*
X164347619Y-96350000D01*
X164347619Y-96064285D02*
X165347619Y-96064285D01*
X165204761Y-96159523D01*
X165109523Y-96254761D01*
X165061904Y-96350000D01*
X165014285Y-94921428D02*
X164347619Y-94921428D01*
X165395238Y-95159523D02*
X164680952Y-95397619D01*
X164680952Y-94778571D01*
X167850000Y-99302380D02*
X167897619Y-99397619D01*
X167897619Y-99540476D01*
X167850000Y-99683333D01*
X167754761Y-99778571D01*
X167659523Y-99826190D01*
X167469047Y-99873809D01*
X167326190Y-99873809D01*
X167135714Y-99826190D01*
X167040476Y-99778571D01*
X166945238Y-99683333D01*
X166897619Y-99540476D01*
X166897619Y-99445238D01*
X166945238Y-99302380D01*
X166992857Y-99254761D01*
X167326190Y-99254761D01*
X167326190Y-99445238D01*
X166897619Y-98826190D02*
X167897619Y-98826190D01*
X167897619Y-98445238D01*
X167850000Y-98350000D01*
X167802380Y-98302380D01*
X167707142Y-98254761D01*
X167564285Y-98254761D01*
X167469047Y-98302380D01*
X167421428Y-98350000D01*
X167373809Y-98445238D01*
X167373809Y-98826190D01*
X166897619Y-97826190D02*
X167897619Y-97826190D01*
X167897619Y-97159523D02*
X167897619Y-96969047D01*
X167850000Y-96873809D01*
X167754761Y-96778571D01*
X167564285Y-96730952D01*
X167230952Y-96730952D01*
X167040476Y-96778571D01*
X166945238Y-96873809D01*
X166897619Y-96969047D01*
X166897619Y-97159523D01*
X166945238Y-97254761D01*
X167040476Y-97350000D01*
X167230952Y-97397619D01*
X167564285Y-97397619D01*
X167754761Y-97350000D01*
X167850000Y-97254761D01*
X167897619Y-97159523D01*
X166897619Y-95778571D02*
X166897619Y-96350000D01*
X166897619Y-96064285D02*
X167897619Y-96064285D01*
X167754761Y-96159523D01*
X167659523Y-96254761D01*
X167611904Y-96350000D01*
X167802380Y-95397619D02*
X167850000Y-95350000D01*
X167897619Y-95254761D01*
X167897619Y-95016666D01*
X167850000Y-94921428D01*
X167802380Y-94873809D01*
X167707142Y-94826190D01*
X167611904Y-94826190D01*
X167469047Y-94873809D01*
X166897619Y-95445238D01*
X166897619Y-94826190D01*
X170350000Y-99302380D02*
X170397619Y-99397619D01*
X170397619Y-99540476D01*
X170350000Y-99683333D01*
X170254761Y-99778571D01*
X170159523Y-99826190D01*
X169969047Y-99873809D01*
X169826190Y-99873809D01*
X169635714Y-99826190D01*
X169540476Y-99778571D01*
X169445238Y-99683333D01*
X169397619Y-99540476D01*
X169397619Y-99445238D01*
X169445238Y-99302380D01*
X169492857Y-99254761D01*
X169826190Y-99254761D01*
X169826190Y-99445238D01*
X169397619Y-98826190D02*
X170397619Y-98826190D01*
X170397619Y-98445238D01*
X170350000Y-98350000D01*
X170302380Y-98302380D01*
X170207142Y-98254761D01*
X170064285Y-98254761D01*
X169969047Y-98302380D01*
X169921428Y-98350000D01*
X169873809Y-98445238D01*
X169873809Y-98826190D01*
X169397619Y-97826190D02*
X170397619Y-97826190D01*
X170397619Y-97159523D02*
X170397619Y-96969047D01*
X170350000Y-96873809D01*
X170254761Y-96778571D01*
X170064285Y-96730952D01*
X169730952Y-96730952D01*
X169540476Y-96778571D01*
X169445238Y-96873809D01*
X169397619Y-96969047D01*
X169397619Y-97159523D01*
X169445238Y-97254761D01*
X169540476Y-97350000D01*
X169730952Y-97397619D01*
X170064285Y-97397619D01*
X170254761Y-97350000D01*
X170350000Y-97254761D01*
X170397619Y-97159523D01*
X169397619Y-95778571D02*
X169397619Y-96350000D01*
X169397619Y-96064285D02*
X170397619Y-96064285D01*
X170254761Y-96159523D01*
X170159523Y-96254761D01*
X170111904Y-96350000D01*
X170397619Y-95445238D02*
X170397619Y-94826190D01*
X170016666Y-95159523D01*
X170016666Y-95016666D01*
X169969047Y-94921428D01*
X169921428Y-94873809D01*
X169826190Y-94826190D01*
X169588095Y-94826190D01*
X169492857Y-94873809D01*
X169445238Y-94921428D01*
X169397619Y-95016666D01*
X169397619Y-95302380D01*
X169445238Y-95397619D01*
X169492857Y-95445238D01*
X172900000Y-99302380D02*
X172947619Y-99397619D01*
X172947619Y-99540476D01*
X172900000Y-99683333D01*
X172804761Y-99778571D01*
X172709523Y-99826190D01*
X172519047Y-99873809D01*
X172376190Y-99873809D01*
X172185714Y-99826190D01*
X172090476Y-99778571D01*
X171995238Y-99683333D01*
X171947619Y-99540476D01*
X171947619Y-99445238D01*
X171995238Y-99302380D01*
X172042857Y-99254761D01*
X172376190Y-99254761D01*
X172376190Y-99445238D01*
X171947619Y-98826190D02*
X172947619Y-98826190D01*
X172947619Y-98445238D01*
X172900000Y-98350000D01*
X172852380Y-98302380D01*
X172757142Y-98254761D01*
X172614285Y-98254761D01*
X172519047Y-98302380D01*
X172471428Y-98350000D01*
X172423809Y-98445238D01*
X172423809Y-98826190D01*
X171947619Y-97826190D02*
X172947619Y-97826190D01*
X172947619Y-97159523D02*
X172947619Y-96969047D01*
X172900000Y-96873809D01*
X172804761Y-96778571D01*
X172614285Y-96730952D01*
X172280952Y-96730952D01*
X172090476Y-96778571D01*
X171995238Y-96873809D01*
X171947619Y-96969047D01*
X171947619Y-97159523D01*
X171995238Y-97254761D01*
X172090476Y-97350000D01*
X172280952Y-97397619D01*
X172614285Y-97397619D01*
X172804761Y-97350000D01*
X172900000Y-97254761D01*
X172947619Y-97159523D01*
X171947619Y-95778571D02*
X171947619Y-96350000D01*
X171947619Y-96064285D02*
X172947619Y-96064285D01*
X172804761Y-96159523D01*
X172709523Y-96254761D01*
X172661904Y-96350000D01*
X172947619Y-94873809D02*
X172947619Y-95350000D01*
X172471428Y-95397619D01*
X172519047Y-95350000D01*
X172566666Y-95254761D01*
X172566666Y-95016666D01*
X172519047Y-94921428D01*
X172471428Y-94873809D01*
X172376190Y-94826190D01*
X172138095Y-94826190D01*
X172042857Y-94873809D01*
X171995238Y-94921428D01*
X171947619Y-95016666D01*
X171947619Y-95254761D01*
X171995238Y-95350000D01*
X172042857Y-95397619D01*
X128500000Y-59352380D02*
X128547619Y-59447619D01*
X128547619Y-59590476D01*
X128500000Y-59733333D01*
X128404761Y-59828571D01*
X128309523Y-59876190D01*
X128119047Y-59923809D01*
X127976190Y-59923809D01*
X127785714Y-59876190D01*
X127690476Y-59828571D01*
X127595238Y-59733333D01*
X127547619Y-59590476D01*
X127547619Y-59495238D01*
X127595238Y-59352380D01*
X127642857Y-59304761D01*
X127976190Y-59304761D01*
X127976190Y-59495238D01*
X127547619Y-58876190D02*
X128547619Y-58876190D01*
X128547619Y-58495238D01*
X128500000Y-58400000D01*
X128452380Y-58352380D01*
X128357142Y-58304761D01*
X128214285Y-58304761D01*
X128119047Y-58352380D01*
X128071428Y-58400000D01*
X128023809Y-58495238D01*
X128023809Y-58876190D01*
X127547619Y-57876190D02*
X128547619Y-57876190D01*
X128547619Y-57209523D02*
X128547619Y-57019047D01*
X128500000Y-56923809D01*
X128404761Y-56828571D01*
X128214285Y-56780952D01*
X127880952Y-56780952D01*
X127690476Y-56828571D01*
X127595238Y-56923809D01*
X127547619Y-57019047D01*
X127547619Y-57209523D01*
X127595238Y-57304761D01*
X127690476Y-57400000D01*
X127880952Y-57447619D01*
X128214285Y-57447619D01*
X128404761Y-57400000D01*
X128500000Y-57304761D01*
X128547619Y-57209523D01*
X128547619Y-56447619D02*
X128547619Y-55828571D01*
X128166666Y-56161904D01*
X128166666Y-56019047D01*
X128119047Y-55923809D01*
X128071428Y-55876190D01*
X127976190Y-55828571D01*
X127738095Y-55828571D01*
X127642857Y-55876190D01*
X127595238Y-55923809D01*
X127547619Y-56019047D01*
X127547619Y-56304761D01*
X127595238Y-56400000D01*
X127642857Y-56447619D01*
X128547619Y-54923809D02*
X128547619Y-55400000D01*
X128071428Y-55447619D01*
X128119047Y-55400000D01*
X128166666Y-55304761D01*
X128166666Y-55066666D01*
X128119047Y-54971428D01*
X128071428Y-54923809D01*
X127976190Y-54876190D01*
X127738095Y-54876190D01*
X127642857Y-54923809D01*
X127595238Y-54971428D01*
X127547619Y-55066666D01*
X127547619Y-55304761D01*
X127595238Y-55400000D01*
X127642857Y-55447619D01*
X131000000Y-59352380D02*
X131047619Y-59447619D01*
X131047619Y-59590476D01*
X131000000Y-59733333D01*
X130904761Y-59828571D01*
X130809523Y-59876190D01*
X130619047Y-59923809D01*
X130476190Y-59923809D01*
X130285714Y-59876190D01*
X130190476Y-59828571D01*
X130095238Y-59733333D01*
X130047619Y-59590476D01*
X130047619Y-59495238D01*
X130095238Y-59352380D01*
X130142857Y-59304761D01*
X130476190Y-59304761D01*
X130476190Y-59495238D01*
X130047619Y-58876190D02*
X131047619Y-58876190D01*
X131047619Y-58495238D01*
X131000000Y-58400000D01*
X130952380Y-58352380D01*
X130857142Y-58304761D01*
X130714285Y-58304761D01*
X130619047Y-58352380D01*
X130571428Y-58400000D01*
X130523809Y-58495238D01*
X130523809Y-58876190D01*
X130047619Y-57876190D02*
X131047619Y-57876190D01*
X131047619Y-57209523D02*
X131047619Y-57019047D01*
X131000000Y-56923809D01*
X130904761Y-56828571D01*
X130714285Y-56780952D01*
X130380952Y-56780952D01*
X130190476Y-56828571D01*
X130095238Y-56923809D01*
X130047619Y-57019047D01*
X130047619Y-57209523D01*
X130095238Y-57304761D01*
X130190476Y-57400000D01*
X130380952Y-57447619D01*
X130714285Y-57447619D01*
X130904761Y-57400000D01*
X131000000Y-57304761D01*
X131047619Y-57209523D01*
X131047619Y-56447619D02*
X131047619Y-55828571D01*
X130666666Y-56161904D01*
X130666666Y-56019047D01*
X130619047Y-55923809D01*
X130571428Y-55876190D01*
X130476190Y-55828571D01*
X130238095Y-55828571D01*
X130142857Y-55876190D01*
X130095238Y-55923809D01*
X130047619Y-56019047D01*
X130047619Y-56304761D01*
X130095238Y-56400000D01*
X130142857Y-56447619D01*
X130714285Y-54971428D02*
X130047619Y-54971428D01*
X131095238Y-55209523D02*
X130380952Y-55447619D01*
X130380952Y-54828571D01*
X133600000Y-59352380D02*
X133647619Y-59447619D01*
X133647619Y-59590476D01*
X133600000Y-59733333D01*
X133504761Y-59828571D01*
X133409523Y-59876190D01*
X133219047Y-59923809D01*
X133076190Y-59923809D01*
X132885714Y-59876190D01*
X132790476Y-59828571D01*
X132695238Y-59733333D01*
X132647619Y-59590476D01*
X132647619Y-59495238D01*
X132695238Y-59352380D01*
X132742857Y-59304761D01*
X133076190Y-59304761D01*
X133076190Y-59495238D01*
X132647619Y-58876190D02*
X133647619Y-58876190D01*
X133647619Y-58495238D01*
X133600000Y-58400000D01*
X133552380Y-58352380D01*
X133457142Y-58304761D01*
X133314285Y-58304761D01*
X133219047Y-58352380D01*
X133171428Y-58400000D01*
X133123809Y-58495238D01*
X133123809Y-58876190D01*
X132647619Y-57876190D02*
X133647619Y-57876190D01*
X133647619Y-57209523D02*
X133647619Y-57019047D01*
X133600000Y-56923809D01*
X133504761Y-56828571D01*
X133314285Y-56780952D01*
X132980952Y-56780952D01*
X132790476Y-56828571D01*
X132695238Y-56923809D01*
X132647619Y-57019047D01*
X132647619Y-57209523D01*
X132695238Y-57304761D01*
X132790476Y-57400000D01*
X132980952Y-57447619D01*
X133314285Y-57447619D01*
X133504761Y-57400000D01*
X133600000Y-57304761D01*
X133647619Y-57209523D01*
X133647619Y-56161904D02*
X133647619Y-56066666D01*
X133600000Y-55971428D01*
X133552380Y-55923809D01*
X133457142Y-55876190D01*
X133266666Y-55828571D01*
X133028571Y-55828571D01*
X132838095Y-55876190D01*
X132742857Y-55923809D01*
X132695238Y-55971428D01*
X132647619Y-56066666D01*
X132647619Y-56161904D01*
X132695238Y-56257142D01*
X132742857Y-56304761D01*
X132838095Y-56352380D01*
X133028571Y-56400000D01*
X133266666Y-56400000D01*
X133457142Y-56352380D01*
X133552380Y-56304761D01*
X133600000Y-56257142D01*
X133647619Y-56161904D01*
X133647619Y-55495238D02*
X133647619Y-54828571D01*
X132647619Y-55257142D01*
X136100000Y-59352380D02*
X136147619Y-59447619D01*
X136147619Y-59590476D01*
X136100000Y-59733333D01*
X136004761Y-59828571D01*
X135909523Y-59876190D01*
X135719047Y-59923809D01*
X135576190Y-59923809D01*
X135385714Y-59876190D01*
X135290476Y-59828571D01*
X135195238Y-59733333D01*
X135147619Y-59590476D01*
X135147619Y-59495238D01*
X135195238Y-59352380D01*
X135242857Y-59304761D01*
X135576190Y-59304761D01*
X135576190Y-59495238D01*
X135147619Y-58876190D02*
X136147619Y-58876190D01*
X136147619Y-58495238D01*
X136100000Y-58400000D01*
X136052380Y-58352380D01*
X135957142Y-58304761D01*
X135814285Y-58304761D01*
X135719047Y-58352380D01*
X135671428Y-58400000D01*
X135623809Y-58495238D01*
X135623809Y-58876190D01*
X135147619Y-57876190D02*
X136147619Y-57876190D01*
X136147619Y-57209523D02*
X136147619Y-57019047D01*
X136100000Y-56923809D01*
X136004761Y-56828571D01*
X135814285Y-56780952D01*
X135480952Y-56780952D01*
X135290476Y-56828571D01*
X135195238Y-56923809D01*
X135147619Y-57019047D01*
X135147619Y-57209523D01*
X135195238Y-57304761D01*
X135290476Y-57400000D01*
X135480952Y-57447619D01*
X135814285Y-57447619D01*
X136004761Y-57400000D01*
X136100000Y-57304761D01*
X136147619Y-57209523D01*
X136147619Y-56161904D02*
X136147619Y-56066666D01*
X136100000Y-55971428D01*
X136052380Y-55923809D01*
X135957142Y-55876190D01*
X135766666Y-55828571D01*
X135528571Y-55828571D01*
X135338095Y-55876190D01*
X135242857Y-55923809D01*
X135195238Y-55971428D01*
X135147619Y-56066666D01*
X135147619Y-56161904D01*
X135195238Y-56257142D01*
X135242857Y-56304761D01*
X135338095Y-56352380D01*
X135528571Y-56400000D01*
X135766666Y-56400000D01*
X135957142Y-56352380D01*
X136052380Y-56304761D01*
X136100000Y-56257142D01*
X136147619Y-56161904D01*
X135719047Y-55257142D02*
X135766666Y-55352380D01*
X135814285Y-55400000D01*
X135909523Y-55447619D01*
X135957142Y-55447619D01*
X136052380Y-55400000D01*
X136100000Y-55352380D01*
X136147619Y-55257142D01*
X136147619Y-55066666D01*
X136100000Y-54971428D01*
X136052380Y-54923809D01*
X135957142Y-54876190D01*
X135909523Y-54876190D01*
X135814285Y-54923809D01*
X135766666Y-54971428D01*
X135719047Y-55066666D01*
X135719047Y-55257142D01*
X135671428Y-55352380D01*
X135623809Y-55400000D01*
X135528571Y-55447619D01*
X135338095Y-55447619D01*
X135242857Y-55400000D01*
X135195238Y-55352380D01*
X135147619Y-55257142D01*
X135147619Y-55066666D01*
X135195238Y-54971428D01*
X135242857Y-54923809D01*
X135338095Y-54876190D01*
X135528571Y-54876190D01*
X135623809Y-54923809D01*
X135671428Y-54971428D01*
X135719047Y-55066666D01*
X138650000Y-59352380D02*
X138697619Y-59447619D01*
X138697619Y-59590476D01*
X138650000Y-59733333D01*
X138554761Y-59828571D01*
X138459523Y-59876190D01*
X138269047Y-59923809D01*
X138126190Y-59923809D01*
X137935714Y-59876190D01*
X137840476Y-59828571D01*
X137745238Y-59733333D01*
X137697619Y-59590476D01*
X137697619Y-59495238D01*
X137745238Y-59352380D01*
X137792857Y-59304761D01*
X138126190Y-59304761D01*
X138126190Y-59495238D01*
X137697619Y-58876190D02*
X138697619Y-58876190D01*
X138697619Y-58495238D01*
X138650000Y-58400000D01*
X138602380Y-58352380D01*
X138507142Y-58304761D01*
X138364285Y-58304761D01*
X138269047Y-58352380D01*
X138221428Y-58400000D01*
X138173809Y-58495238D01*
X138173809Y-58876190D01*
X137697619Y-57876190D02*
X138697619Y-57876190D01*
X138697619Y-57209523D02*
X138697619Y-57019047D01*
X138650000Y-56923809D01*
X138554761Y-56828571D01*
X138364285Y-56780952D01*
X138030952Y-56780952D01*
X137840476Y-56828571D01*
X137745238Y-56923809D01*
X137697619Y-57019047D01*
X137697619Y-57209523D01*
X137745238Y-57304761D01*
X137840476Y-57400000D01*
X138030952Y-57447619D01*
X138364285Y-57447619D01*
X138554761Y-57400000D01*
X138650000Y-57304761D01*
X138697619Y-57209523D01*
X137697619Y-55828571D02*
X137697619Y-56400000D01*
X137697619Y-56114285D02*
X138697619Y-56114285D01*
X138554761Y-56209523D01*
X138459523Y-56304761D01*
X138411904Y-56400000D01*
X138269047Y-55257142D02*
X138316666Y-55352380D01*
X138364285Y-55400000D01*
X138459523Y-55447619D01*
X138507142Y-55447619D01*
X138602380Y-55400000D01*
X138650000Y-55352380D01*
X138697619Y-55257142D01*
X138697619Y-55066666D01*
X138650000Y-54971428D01*
X138602380Y-54923809D01*
X138507142Y-54876190D01*
X138459523Y-54876190D01*
X138364285Y-54923809D01*
X138316666Y-54971428D01*
X138269047Y-55066666D01*
X138269047Y-55257142D01*
X138221428Y-55352380D01*
X138173809Y-55400000D01*
X138078571Y-55447619D01*
X137888095Y-55447619D01*
X137792857Y-55400000D01*
X137745238Y-55352380D01*
X137697619Y-55257142D01*
X137697619Y-55066666D01*
X137745238Y-54971428D01*
X137792857Y-54923809D01*
X137888095Y-54876190D01*
X138078571Y-54876190D01*
X138173809Y-54923809D01*
X138221428Y-54971428D01*
X138269047Y-55066666D01*
X141250000Y-59352380D02*
X141297619Y-59447619D01*
X141297619Y-59590476D01*
X141250000Y-59733333D01*
X141154761Y-59828571D01*
X141059523Y-59876190D01*
X140869047Y-59923809D01*
X140726190Y-59923809D01*
X140535714Y-59876190D01*
X140440476Y-59828571D01*
X140345238Y-59733333D01*
X140297619Y-59590476D01*
X140297619Y-59495238D01*
X140345238Y-59352380D01*
X140392857Y-59304761D01*
X140726190Y-59304761D01*
X140726190Y-59495238D01*
X140297619Y-58876190D02*
X141297619Y-58876190D01*
X141297619Y-58495238D01*
X141250000Y-58400000D01*
X141202380Y-58352380D01*
X141107142Y-58304761D01*
X140964285Y-58304761D01*
X140869047Y-58352380D01*
X140821428Y-58400000D01*
X140773809Y-58495238D01*
X140773809Y-58876190D01*
X140297619Y-57876190D02*
X141297619Y-57876190D01*
X141297619Y-57209523D02*
X141297619Y-57019047D01*
X141250000Y-56923809D01*
X141154761Y-56828571D01*
X140964285Y-56780952D01*
X140630952Y-56780952D01*
X140440476Y-56828571D01*
X140345238Y-56923809D01*
X140297619Y-57019047D01*
X140297619Y-57209523D01*
X140345238Y-57304761D01*
X140440476Y-57400000D01*
X140630952Y-57447619D01*
X140964285Y-57447619D01*
X141154761Y-57400000D01*
X141250000Y-57304761D01*
X141297619Y-57209523D01*
X140297619Y-55828571D02*
X140297619Y-56400000D01*
X140297619Y-56114285D02*
X141297619Y-56114285D01*
X141154761Y-56209523D01*
X141059523Y-56304761D01*
X141011904Y-56400000D01*
X140297619Y-55352380D02*
X140297619Y-55161904D01*
X140345238Y-55066666D01*
X140392857Y-55019047D01*
X140535714Y-54923809D01*
X140726190Y-54876190D01*
X141107142Y-54876190D01*
X141202380Y-54923809D01*
X141250000Y-54971428D01*
X141297619Y-55066666D01*
X141297619Y-55257142D01*
X141250000Y-55352380D01*
X141202380Y-55400000D01*
X141107142Y-55447619D01*
X140869047Y-55447619D01*
X140773809Y-55400000D01*
X140726190Y-55352380D01*
X140678571Y-55257142D01*
X140678571Y-55066666D01*
X140726190Y-54971428D01*
X140773809Y-54923809D01*
X140869047Y-54876190D01*
X143750000Y-59302380D02*
X143797619Y-59397619D01*
X143797619Y-59540476D01*
X143750000Y-59683333D01*
X143654761Y-59778571D01*
X143559523Y-59826190D01*
X143369047Y-59873809D01*
X143226190Y-59873809D01*
X143035714Y-59826190D01*
X142940476Y-59778571D01*
X142845238Y-59683333D01*
X142797619Y-59540476D01*
X142797619Y-59445238D01*
X142845238Y-59302380D01*
X142892857Y-59254761D01*
X143226190Y-59254761D01*
X143226190Y-59445238D01*
X142797619Y-58826190D02*
X143797619Y-58826190D01*
X143797619Y-58445238D01*
X143750000Y-58350000D01*
X143702380Y-58302380D01*
X143607142Y-58254761D01*
X143464285Y-58254761D01*
X143369047Y-58302380D01*
X143321428Y-58350000D01*
X143273809Y-58445238D01*
X143273809Y-58826190D01*
X142797619Y-57826190D02*
X143797619Y-57826190D01*
X143797619Y-57159523D02*
X143797619Y-56969047D01*
X143750000Y-56873809D01*
X143654761Y-56778571D01*
X143464285Y-56730952D01*
X143130952Y-56730952D01*
X142940476Y-56778571D01*
X142845238Y-56873809D01*
X142797619Y-56969047D01*
X142797619Y-57159523D01*
X142845238Y-57254761D01*
X142940476Y-57350000D01*
X143130952Y-57397619D01*
X143464285Y-57397619D01*
X143654761Y-57350000D01*
X143750000Y-57254761D01*
X143797619Y-57159523D01*
X143702380Y-56350000D02*
X143750000Y-56302380D01*
X143797619Y-56207142D01*
X143797619Y-55969047D01*
X143750000Y-55873809D01*
X143702380Y-55826190D01*
X143607142Y-55778571D01*
X143511904Y-55778571D01*
X143369047Y-55826190D01*
X142797619Y-56397619D01*
X142797619Y-55778571D01*
X143797619Y-55445238D02*
X143797619Y-54826190D01*
X143416666Y-55159523D01*
X143416666Y-55016666D01*
X143369047Y-54921428D01*
X143321428Y-54873809D01*
X143226190Y-54826190D01*
X142988095Y-54826190D01*
X142892857Y-54873809D01*
X142845238Y-54921428D01*
X142797619Y-55016666D01*
X142797619Y-55302380D01*
X142845238Y-55397619D01*
X142892857Y-55445238D01*
X146250000Y-59302380D02*
X146297619Y-59397619D01*
X146297619Y-59540476D01*
X146250000Y-59683333D01*
X146154761Y-59778571D01*
X146059523Y-59826190D01*
X145869047Y-59873809D01*
X145726190Y-59873809D01*
X145535714Y-59826190D01*
X145440476Y-59778571D01*
X145345238Y-59683333D01*
X145297619Y-59540476D01*
X145297619Y-59445238D01*
X145345238Y-59302380D01*
X145392857Y-59254761D01*
X145726190Y-59254761D01*
X145726190Y-59445238D01*
X145297619Y-58826190D02*
X146297619Y-58826190D01*
X146297619Y-58445238D01*
X146250000Y-58350000D01*
X146202380Y-58302380D01*
X146107142Y-58254761D01*
X145964285Y-58254761D01*
X145869047Y-58302380D01*
X145821428Y-58350000D01*
X145773809Y-58445238D01*
X145773809Y-58826190D01*
X145297619Y-57826190D02*
X146297619Y-57826190D01*
X146297619Y-57159523D02*
X146297619Y-56969047D01*
X146250000Y-56873809D01*
X146154761Y-56778571D01*
X145964285Y-56730952D01*
X145630952Y-56730952D01*
X145440476Y-56778571D01*
X145345238Y-56873809D01*
X145297619Y-56969047D01*
X145297619Y-57159523D01*
X145345238Y-57254761D01*
X145440476Y-57350000D01*
X145630952Y-57397619D01*
X145964285Y-57397619D01*
X146154761Y-57350000D01*
X146250000Y-57254761D01*
X146297619Y-57159523D01*
X146297619Y-56111904D02*
X146297619Y-56016666D01*
X146250000Y-55921428D01*
X146202380Y-55873809D01*
X146107142Y-55826190D01*
X145916666Y-55778571D01*
X145678571Y-55778571D01*
X145488095Y-55826190D01*
X145392857Y-55873809D01*
X145345238Y-55921428D01*
X145297619Y-56016666D01*
X145297619Y-56111904D01*
X145345238Y-56207142D01*
X145392857Y-56254761D01*
X145488095Y-56302380D01*
X145678571Y-56350000D01*
X145916666Y-56350000D01*
X146107142Y-56302380D01*
X146202380Y-56254761D01*
X146250000Y-56207142D01*
X146297619Y-56111904D01*
X146297619Y-54873809D02*
X146297619Y-55350000D01*
X145821428Y-55397619D01*
X145869047Y-55350000D01*
X145916666Y-55254761D01*
X145916666Y-55016666D01*
X145869047Y-54921428D01*
X145821428Y-54873809D01*
X145726190Y-54826190D01*
X145488095Y-54826190D01*
X145392857Y-54873809D01*
X145345238Y-54921428D01*
X145297619Y-55016666D01*
X145297619Y-55254761D01*
X145345238Y-55350000D01*
X145392857Y-55397619D01*
X148850000Y-59302380D02*
X148897619Y-59397619D01*
X148897619Y-59540476D01*
X148850000Y-59683333D01*
X148754761Y-59778571D01*
X148659523Y-59826190D01*
X148469047Y-59873809D01*
X148326190Y-59873809D01*
X148135714Y-59826190D01*
X148040476Y-59778571D01*
X147945238Y-59683333D01*
X147897619Y-59540476D01*
X147897619Y-59445238D01*
X147945238Y-59302380D01*
X147992857Y-59254761D01*
X148326190Y-59254761D01*
X148326190Y-59445238D01*
X147897619Y-58826190D02*
X148897619Y-58826190D01*
X148897619Y-58445238D01*
X148850000Y-58350000D01*
X148802380Y-58302380D01*
X148707142Y-58254761D01*
X148564285Y-58254761D01*
X148469047Y-58302380D01*
X148421428Y-58350000D01*
X148373809Y-58445238D01*
X148373809Y-58826190D01*
X147897619Y-57826190D02*
X148897619Y-57826190D01*
X148897619Y-57159523D02*
X148897619Y-56969047D01*
X148850000Y-56873809D01*
X148754761Y-56778571D01*
X148564285Y-56730952D01*
X148230952Y-56730952D01*
X148040476Y-56778571D01*
X147945238Y-56873809D01*
X147897619Y-56969047D01*
X147897619Y-57159523D01*
X147945238Y-57254761D01*
X148040476Y-57350000D01*
X148230952Y-57397619D01*
X148564285Y-57397619D01*
X148754761Y-57350000D01*
X148850000Y-57254761D01*
X148897619Y-57159523D01*
X148802380Y-56350000D02*
X148850000Y-56302380D01*
X148897619Y-56207142D01*
X148897619Y-55969047D01*
X148850000Y-55873809D01*
X148802380Y-55826190D01*
X148707142Y-55778571D01*
X148611904Y-55778571D01*
X148469047Y-55826190D01*
X147897619Y-56397619D01*
X147897619Y-55778571D01*
X147897619Y-54826190D02*
X147897619Y-55397619D01*
X147897619Y-55111904D02*
X148897619Y-55111904D01*
X148754761Y-55207142D01*
X148659523Y-55302380D01*
X148611904Y-55397619D01*
X151350000Y-59302380D02*
X151397619Y-59397619D01*
X151397619Y-59540476D01*
X151350000Y-59683333D01*
X151254761Y-59778571D01*
X151159523Y-59826190D01*
X150969047Y-59873809D01*
X150826190Y-59873809D01*
X150635714Y-59826190D01*
X150540476Y-59778571D01*
X150445238Y-59683333D01*
X150397619Y-59540476D01*
X150397619Y-59445238D01*
X150445238Y-59302380D01*
X150492857Y-59254761D01*
X150826190Y-59254761D01*
X150826190Y-59445238D01*
X150397619Y-58826190D02*
X151397619Y-58826190D01*
X151397619Y-58445238D01*
X151350000Y-58350000D01*
X151302380Y-58302380D01*
X151207142Y-58254761D01*
X151064285Y-58254761D01*
X150969047Y-58302380D01*
X150921428Y-58350000D01*
X150873809Y-58445238D01*
X150873809Y-58826190D01*
X150397619Y-57826190D02*
X151397619Y-57826190D01*
X151397619Y-57159523D02*
X151397619Y-56969047D01*
X151350000Y-56873809D01*
X151254761Y-56778571D01*
X151064285Y-56730952D01*
X150730952Y-56730952D01*
X150540476Y-56778571D01*
X150445238Y-56873809D01*
X150397619Y-56969047D01*
X150397619Y-57159523D01*
X150445238Y-57254761D01*
X150540476Y-57350000D01*
X150730952Y-57397619D01*
X151064285Y-57397619D01*
X151254761Y-57350000D01*
X151350000Y-57254761D01*
X151397619Y-57159523D01*
X151302380Y-56350000D02*
X151350000Y-56302380D01*
X151397619Y-56207142D01*
X151397619Y-55969047D01*
X151350000Y-55873809D01*
X151302380Y-55826190D01*
X151207142Y-55778571D01*
X151111904Y-55778571D01*
X150969047Y-55826190D01*
X150397619Y-56397619D01*
X150397619Y-55778571D01*
X151302380Y-55397619D02*
X151350000Y-55350000D01*
X151397619Y-55254761D01*
X151397619Y-55016666D01*
X151350000Y-54921428D01*
X151302380Y-54873809D01*
X151207142Y-54826190D01*
X151111904Y-54826190D01*
X150969047Y-54873809D01*
X150397619Y-55445238D01*
X150397619Y-54826190D01*
X155150000Y-59352380D02*
X155197619Y-59447619D01*
X155197619Y-59590476D01*
X155150000Y-59733333D01*
X155054761Y-59828571D01*
X154959523Y-59876190D01*
X154769047Y-59923809D01*
X154626190Y-59923809D01*
X154435714Y-59876190D01*
X154340476Y-59828571D01*
X154245238Y-59733333D01*
X154197619Y-59590476D01*
X154197619Y-59495238D01*
X154245238Y-59352380D01*
X154292857Y-59304761D01*
X154626190Y-59304761D01*
X154626190Y-59495238D01*
X154197619Y-58876190D02*
X155197619Y-58876190D01*
X155197619Y-58495238D01*
X155150000Y-58400000D01*
X155102380Y-58352380D01*
X155007142Y-58304761D01*
X154864285Y-58304761D01*
X154769047Y-58352380D01*
X154721428Y-58400000D01*
X154673809Y-58495238D01*
X154673809Y-58876190D01*
X154197619Y-57876190D02*
X155197619Y-57876190D01*
X155197619Y-57209523D02*
X155197619Y-57019047D01*
X155150000Y-56923809D01*
X155054761Y-56828571D01*
X154864285Y-56780952D01*
X154530952Y-56780952D01*
X154340476Y-56828571D01*
X154245238Y-56923809D01*
X154197619Y-57019047D01*
X154197619Y-57209523D01*
X154245238Y-57304761D01*
X154340476Y-57400000D01*
X154530952Y-57447619D01*
X154864285Y-57447619D01*
X155054761Y-57400000D01*
X155150000Y-57304761D01*
X155197619Y-57209523D01*
X155102380Y-56400000D02*
X155150000Y-56352380D01*
X155197619Y-56257142D01*
X155197619Y-56019047D01*
X155150000Y-55923809D01*
X155102380Y-55876190D01*
X155007142Y-55828571D01*
X154911904Y-55828571D01*
X154769047Y-55876190D01*
X154197619Y-56447619D01*
X154197619Y-55828571D01*
X155197619Y-55495238D02*
X155197619Y-54828571D01*
X154197619Y-55257142D01*
X157700000Y-59352380D02*
X157747619Y-59447619D01*
X157747619Y-59590476D01*
X157700000Y-59733333D01*
X157604761Y-59828571D01*
X157509523Y-59876190D01*
X157319047Y-59923809D01*
X157176190Y-59923809D01*
X156985714Y-59876190D01*
X156890476Y-59828571D01*
X156795238Y-59733333D01*
X156747619Y-59590476D01*
X156747619Y-59495238D01*
X156795238Y-59352380D01*
X156842857Y-59304761D01*
X157176190Y-59304761D01*
X157176190Y-59495238D01*
X156747619Y-58876190D02*
X157747619Y-58876190D01*
X157747619Y-58495238D01*
X157700000Y-58400000D01*
X157652380Y-58352380D01*
X157557142Y-58304761D01*
X157414285Y-58304761D01*
X157319047Y-58352380D01*
X157271428Y-58400000D01*
X157223809Y-58495238D01*
X157223809Y-58876190D01*
X156747619Y-57876190D02*
X157747619Y-57876190D01*
X157747619Y-57209523D02*
X157747619Y-57019047D01*
X157700000Y-56923809D01*
X157604761Y-56828571D01*
X157414285Y-56780952D01*
X157080952Y-56780952D01*
X156890476Y-56828571D01*
X156795238Y-56923809D01*
X156747619Y-57019047D01*
X156747619Y-57209523D01*
X156795238Y-57304761D01*
X156890476Y-57400000D01*
X157080952Y-57447619D01*
X157414285Y-57447619D01*
X157604761Y-57400000D01*
X157700000Y-57304761D01*
X157747619Y-57209523D01*
X157652380Y-56400000D02*
X157700000Y-56352380D01*
X157747619Y-56257142D01*
X157747619Y-56019047D01*
X157700000Y-55923809D01*
X157652380Y-55876190D01*
X157557142Y-55828571D01*
X157461904Y-55828571D01*
X157319047Y-55876190D01*
X156747619Y-56447619D01*
X156747619Y-55828571D01*
X157747619Y-54971428D02*
X157747619Y-55161904D01*
X157700000Y-55257142D01*
X157652380Y-55304761D01*
X157509523Y-55400000D01*
X157319047Y-55447619D01*
X156938095Y-55447619D01*
X156842857Y-55400000D01*
X156795238Y-55352380D01*
X156747619Y-55257142D01*
X156747619Y-55066666D01*
X156795238Y-54971428D01*
X156842857Y-54923809D01*
X156938095Y-54876190D01*
X157176190Y-54876190D01*
X157271428Y-54923809D01*
X157319047Y-54971428D01*
X157366666Y-55066666D01*
X157366666Y-55257142D01*
X157319047Y-55352380D01*
X157271428Y-55400000D01*
X157176190Y-55447619D01*
X160250000Y-59352380D02*
X160297619Y-59447619D01*
X160297619Y-59590476D01*
X160250000Y-59733333D01*
X160154761Y-59828571D01*
X160059523Y-59876190D01*
X159869047Y-59923809D01*
X159726190Y-59923809D01*
X159535714Y-59876190D01*
X159440476Y-59828571D01*
X159345238Y-59733333D01*
X159297619Y-59590476D01*
X159297619Y-59495238D01*
X159345238Y-59352380D01*
X159392857Y-59304761D01*
X159726190Y-59304761D01*
X159726190Y-59495238D01*
X159297619Y-58876190D02*
X160297619Y-58876190D01*
X160297619Y-58495238D01*
X160250000Y-58400000D01*
X160202380Y-58352380D01*
X160107142Y-58304761D01*
X159964285Y-58304761D01*
X159869047Y-58352380D01*
X159821428Y-58400000D01*
X159773809Y-58495238D01*
X159773809Y-58876190D01*
X159297619Y-57876190D02*
X160297619Y-57876190D01*
X160297619Y-57209523D02*
X160297619Y-57019047D01*
X160250000Y-56923809D01*
X160154761Y-56828571D01*
X159964285Y-56780952D01*
X159630952Y-56780952D01*
X159440476Y-56828571D01*
X159345238Y-56923809D01*
X159297619Y-57019047D01*
X159297619Y-57209523D01*
X159345238Y-57304761D01*
X159440476Y-57400000D01*
X159630952Y-57447619D01*
X159964285Y-57447619D01*
X160154761Y-57400000D01*
X160250000Y-57304761D01*
X160297619Y-57209523D01*
X160202380Y-56400000D02*
X160250000Y-56352380D01*
X160297619Y-56257142D01*
X160297619Y-56019047D01*
X160250000Y-55923809D01*
X160202380Y-55876190D01*
X160107142Y-55828571D01*
X160011904Y-55828571D01*
X159869047Y-55876190D01*
X159297619Y-56447619D01*
X159297619Y-55828571D01*
X160297619Y-54923809D02*
X160297619Y-55400000D01*
X159821428Y-55447619D01*
X159869047Y-55400000D01*
X159916666Y-55304761D01*
X159916666Y-55066666D01*
X159869047Y-54971428D01*
X159821428Y-54923809D01*
X159726190Y-54876190D01*
X159488095Y-54876190D01*
X159392857Y-54923809D01*
X159345238Y-54971428D01*
X159297619Y-55066666D01*
X159297619Y-55304761D01*
X159345238Y-55400000D01*
X159392857Y-55447619D01*
X162800000Y-59402380D02*
X162847619Y-59497619D01*
X162847619Y-59640476D01*
X162800000Y-59783333D01*
X162704761Y-59878571D01*
X162609523Y-59926190D01*
X162419047Y-59973809D01*
X162276190Y-59973809D01*
X162085714Y-59926190D01*
X161990476Y-59878571D01*
X161895238Y-59783333D01*
X161847619Y-59640476D01*
X161847619Y-59545238D01*
X161895238Y-59402380D01*
X161942857Y-59354761D01*
X162276190Y-59354761D01*
X162276190Y-59545238D01*
X161847619Y-58926190D02*
X162847619Y-58926190D01*
X162847619Y-58545238D01*
X162800000Y-58450000D01*
X162752380Y-58402380D01*
X162657142Y-58354761D01*
X162514285Y-58354761D01*
X162419047Y-58402380D01*
X162371428Y-58450000D01*
X162323809Y-58545238D01*
X162323809Y-58926190D01*
X161847619Y-57926190D02*
X162847619Y-57926190D01*
X162847619Y-57259523D02*
X162847619Y-57069047D01*
X162800000Y-56973809D01*
X162704761Y-56878571D01*
X162514285Y-56830952D01*
X162180952Y-56830952D01*
X161990476Y-56878571D01*
X161895238Y-56973809D01*
X161847619Y-57069047D01*
X161847619Y-57259523D01*
X161895238Y-57354761D01*
X161990476Y-57450000D01*
X162180952Y-57497619D01*
X162514285Y-57497619D01*
X162704761Y-57450000D01*
X162800000Y-57354761D01*
X162847619Y-57259523D01*
X162847619Y-56211904D02*
X162847619Y-56116666D01*
X162800000Y-56021428D01*
X162752380Y-55973809D01*
X162657142Y-55926190D01*
X162466666Y-55878571D01*
X162228571Y-55878571D01*
X162038095Y-55926190D01*
X161942857Y-55973809D01*
X161895238Y-56021428D01*
X161847619Y-56116666D01*
X161847619Y-56211904D01*
X161895238Y-56307142D01*
X161942857Y-56354761D01*
X162038095Y-56402380D01*
X162228571Y-56450000D01*
X162466666Y-56450000D01*
X162657142Y-56402380D01*
X162752380Y-56354761D01*
X162800000Y-56307142D01*
X162847619Y-56211904D01*
X162514285Y-55021428D02*
X161847619Y-55021428D01*
X162895238Y-55259523D02*
X162180952Y-55497619D01*
X162180952Y-54878571D01*
X165300000Y-58576190D02*
X165347619Y-58671428D01*
X165347619Y-58814285D01*
X165300000Y-58957142D01*
X165204761Y-59052380D01*
X165109523Y-59100000D01*
X164919047Y-59147619D01*
X164776190Y-59147619D01*
X164585714Y-59100000D01*
X164490476Y-59052380D01*
X164395238Y-58957142D01*
X164347619Y-58814285D01*
X164347619Y-58719047D01*
X164395238Y-58576190D01*
X164442857Y-58528571D01*
X164776190Y-58528571D01*
X164776190Y-58719047D01*
X164347619Y-58100000D02*
X165347619Y-58100000D01*
X165347619Y-57719047D01*
X165300000Y-57623809D01*
X165252380Y-57576190D01*
X165157142Y-57528571D01*
X165014285Y-57528571D01*
X164919047Y-57576190D01*
X164871428Y-57623809D01*
X164823809Y-57719047D01*
X164823809Y-58100000D01*
X164347619Y-57100000D02*
X165347619Y-57100000D01*
X165347619Y-56433333D02*
X165347619Y-56242857D01*
X165300000Y-56147619D01*
X165204761Y-56052380D01*
X165014285Y-56004761D01*
X164680952Y-56004761D01*
X164490476Y-56052380D01*
X164395238Y-56147619D01*
X164347619Y-56242857D01*
X164347619Y-56433333D01*
X164395238Y-56528571D01*
X164490476Y-56623809D01*
X164680952Y-56671428D01*
X165014285Y-56671428D01*
X165204761Y-56623809D01*
X165300000Y-56528571D01*
X165347619Y-56433333D01*
X165347619Y-55385714D02*
X165347619Y-55290476D01*
X165300000Y-55195238D01*
X165252380Y-55147619D01*
X165157142Y-55100000D01*
X164966666Y-55052380D01*
X164728571Y-55052380D01*
X164538095Y-55100000D01*
X164442857Y-55147619D01*
X164395238Y-55195238D01*
X164347619Y-55290476D01*
X164347619Y-55385714D01*
X164395238Y-55480952D01*
X164442857Y-55528571D01*
X164538095Y-55576190D01*
X164728571Y-55623809D01*
X164966666Y-55623809D01*
X165157142Y-55576190D01*
X165252380Y-55528571D01*
X165300000Y-55480952D01*
X165347619Y-55385714D01*
X167900000Y-59352380D02*
X167947619Y-59447619D01*
X167947619Y-59590476D01*
X167900000Y-59733333D01*
X167804761Y-59828571D01*
X167709523Y-59876190D01*
X167519047Y-59923809D01*
X167376190Y-59923809D01*
X167185714Y-59876190D01*
X167090476Y-59828571D01*
X166995238Y-59733333D01*
X166947619Y-59590476D01*
X166947619Y-59495238D01*
X166995238Y-59352380D01*
X167042857Y-59304761D01*
X167376190Y-59304761D01*
X167376190Y-59495238D01*
X166947619Y-58876190D02*
X167947619Y-58876190D01*
X167947619Y-58495238D01*
X167900000Y-58400000D01*
X167852380Y-58352380D01*
X167757142Y-58304761D01*
X167614285Y-58304761D01*
X167519047Y-58352380D01*
X167471428Y-58400000D01*
X167423809Y-58495238D01*
X167423809Y-58876190D01*
X166947619Y-57876190D02*
X167947619Y-57876190D01*
X167947619Y-57209523D02*
X167947619Y-57019047D01*
X167900000Y-56923809D01*
X167804761Y-56828571D01*
X167614285Y-56780952D01*
X167280952Y-56780952D01*
X167090476Y-56828571D01*
X166995238Y-56923809D01*
X166947619Y-57019047D01*
X166947619Y-57209523D01*
X166995238Y-57304761D01*
X167090476Y-57400000D01*
X167280952Y-57447619D01*
X167614285Y-57447619D01*
X167804761Y-57400000D01*
X167900000Y-57304761D01*
X167947619Y-57209523D01*
X167947619Y-56161904D02*
X167947619Y-56066666D01*
X167900000Y-55971428D01*
X167852380Y-55923809D01*
X167757142Y-55876190D01*
X167566666Y-55828571D01*
X167328571Y-55828571D01*
X167138095Y-55876190D01*
X167042857Y-55923809D01*
X166995238Y-55971428D01*
X166947619Y-56066666D01*
X166947619Y-56161904D01*
X166995238Y-56257142D01*
X167042857Y-56304761D01*
X167138095Y-56352380D01*
X167328571Y-56400000D01*
X167566666Y-56400000D01*
X167757142Y-56352380D01*
X167852380Y-56304761D01*
X167900000Y-56257142D01*
X167947619Y-56161904D01*
X167852380Y-55447619D02*
X167900000Y-55400000D01*
X167947619Y-55304761D01*
X167947619Y-55066666D01*
X167900000Y-54971428D01*
X167852380Y-54923809D01*
X167757142Y-54876190D01*
X167661904Y-54876190D01*
X167519047Y-54923809D01*
X166947619Y-55495238D01*
X166947619Y-54876190D01*
X170400000Y-59352380D02*
X170447619Y-59447619D01*
X170447619Y-59590476D01*
X170400000Y-59733333D01*
X170304761Y-59828571D01*
X170209523Y-59876190D01*
X170019047Y-59923809D01*
X169876190Y-59923809D01*
X169685714Y-59876190D01*
X169590476Y-59828571D01*
X169495238Y-59733333D01*
X169447619Y-59590476D01*
X169447619Y-59495238D01*
X169495238Y-59352380D01*
X169542857Y-59304761D01*
X169876190Y-59304761D01*
X169876190Y-59495238D01*
X169447619Y-58876190D02*
X170447619Y-58876190D01*
X170447619Y-58495238D01*
X170400000Y-58400000D01*
X170352380Y-58352380D01*
X170257142Y-58304761D01*
X170114285Y-58304761D01*
X170019047Y-58352380D01*
X169971428Y-58400000D01*
X169923809Y-58495238D01*
X169923809Y-58876190D01*
X169447619Y-57876190D02*
X170447619Y-57876190D01*
X170447619Y-57209523D02*
X170447619Y-57019047D01*
X170400000Y-56923809D01*
X170304761Y-56828571D01*
X170114285Y-56780952D01*
X169780952Y-56780952D01*
X169590476Y-56828571D01*
X169495238Y-56923809D01*
X169447619Y-57019047D01*
X169447619Y-57209523D01*
X169495238Y-57304761D01*
X169590476Y-57400000D01*
X169780952Y-57447619D01*
X170114285Y-57447619D01*
X170304761Y-57400000D01*
X170400000Y-57304761D01*
X170447619Y-57209523D01*
X169447619Y-55828571D02*
X169447619Y-56400000D01*
X169447619Y-56114285D02*
X170447619Y-56114285D01*
X170304761Y-56209523D01*
X170209523Y-56304761D01*
X170161904Y-56400000D01*
X170447619Y-55209523D02*
X170447619Y-55114285D01*
X170400000Y-55019047D01*
X170352380Y-54971428D01*
X170257142Y-54923809D01*
X170066666Y-54876190D01*
X169828571Y-54876190D01*
X169638095Y-54923809D01*
X169542857Y-54971428D01*
X169495238Y-55019047D01*
X169447619Y-55114285D01*
X169447619Y-55209523D01*
X169495238Y-55304761D01*
X169542857Y-55352380D01*
X169638095Y-55400000D01*
X169828571Y-55447619D01*
X170066666Y-55447619D01*
X170257142Y-55400000D01*
X170352380Y-55352380D01*
X170400000Y-55304761D01*
X170447619Y-55209523D01*
X172950000Y-59352380D02*
X172997619Y-59447619D01*
X172997619Y-59590476D01*
X172950000Y-59733333D01*
X172854761Y-59828571D01*
X172759523Y-59876190D01*
X172569047Y-59923809D01*
X172426190Y-59923809D01*
X172235714Y-59876190D01*
X172140476Y-59828571D01*
X172045238Y-59733333D01*
X171997619Y-59590476D01*
X171997619Y-59495238D01*
X172045238Y-59352380D01*
X172092857Y-59304761D01*
X172426190Y-59304761D01*
X172426190Y-59495238D01*
X171997619Y-58876190D02*
X172997619Y-58876190D01*
X172997619Y-58495238D01*
X172950000Y-58400000D01*
X172902380Y-58352380D01*
X172807142Y-58304761D01*
X172664285Y-58304761D01*
X172569047Y-58352380D01*
X172521428Y-58400000D01*
X172473809Y-58495238D01*
X172473809Y-58876190D01*
X171997619Y-57876190D02*
X172997619Y-57876190D01*
X172997619Y-57209523D02*
X172997619Y-57019047D01*
X172950000Y-56923809D01*
X172854761Y-56828571D01*
X172664285Y-56780952D01*
X172330952Y-56780952D01*
X172140476Y-56828571D01*
X172045238Y-56923809D01*
X171997619Y-57019047D01*
X171997619Y-57209523D01*
X172045238Y-57304761D01*
X172140476Y-57400000D01*
X172330952Y-57447619D01*
X172664285Y-57447619D01*
X172854761Y-57400000D01*
X172950000Y-57304761D01*
X172997619Y-57209523D01*
X172997619Y-56161904D02*
X172997619Y-56066666D01*
X172950000Y-55971428D01*
X172902380Y-55923809D01*
X172807142Y-55876190D01*
X172616666Y-55828571D01*
X172378571Y-55828571D01*
X172188095Y-55876190D01*
X172092857Y-55923809D01*
X172045238Y-55971428D01*
X171997619Y-56066666D01*
X171997619Y-56161904D01*
X172045238Y-56257142D01*
X172092857Y-56304761D01*
X172188095Y-56352380D01*
X172378571Y-56400000D01*
X172616666Y-56400000D01*
X172807142Y-56352380D01*
X172902380Y-56304761D01*
X172950000Y-56257142D01*
X172997619Y-56161904D01*
X171997619Y-55352380D02*
X171997619Y-55161904D01*
X172045238Y-55066666D01*
X172092857Y-55019047D01*
X172235714Y-54923809D01*
X172426190Y-54876190D01*
X172807142Y-54876190D01*
X172902380Y-54923809D01*
X172950000Y-54971428D01*
X172997619Y-55066666D01*
X172997619Y-55257142D01*
X172950000Y-55352380D01*
X172902380Y-55400000D01*
X172807142Y-55447619D01*
X172569047Y-55447619D01*
X172473809Y-55400000D01*
X172426190Y-55352380D01*
X172378571Y-55257142D01*
X172378571Y-55066666D01*
X172426190Y-54971428D01*
X172473809Y-54923809D01*
X172569047Y-54876190D01*
D12*
X145200000Y-80000000D02*
X145200000Y-80000000D01*
X145200000Y-87000000D02*
X145200000Y-80000000D01*
X147000000Y-87000000D02*
X147000000Y-87000000D01*
X147000000Y-93000000D02*
X147000000Y-87000000D01*
X145200000Y-87000000D02*
X145200000Y-87000000D01*
X147000000Y-87000000D02*
X145200000Y-87000000D01*
X147000000Y-80000000D02*
X147000000Y-87000000D01*
X145200000Y-80000000D02*
X147000000Y-80000000D01*
X145200000Y-87000000D02*
X145200000Y-87000000D01*
X147000000Y-87000000D02*
X152400000Y-87000000D01*
X150600000Y-93000000D02*
X150600000Y-93000000D01*
X152400000Y-93000000D02*
X150600000Y-93000000D01*
X152400000Y-80000000D02*
X152400000Y-93000000D01*
X150600000Y-80000000D02*
X152400000Y-80000000D01*
X148800000Y-93000000D02*
X148800000Y-93000000D01*
X150600000Y-93000000D02*
X148800000Y-93000000D01*
X150600000Y-80000000D02*
X150600000Y-93000000D01*
X148800000Y-80000000D02*
X150600000Y-80000000D01*
X154600000Y-93000000D02*
X154600000Y-93000000D01*
X148800000Y-93000000D02*
X147000000Y-93000000D01*
X148800000Y-80000000D02*
X148800000Y-93000000D01*
X147000000Y-80000000D02*
X148800000Y-80000000D01*
X154600000Y-87000000D02*
X154600000Y-87000000D01*
X152400000Y-87000000D02*
X154600000Y-87000000D01*
X152400000Y-80000000D02*
X152400000Y-80000000D01*
X154600000Y-80000000D02*
X152400000Y-80000000D01*
X154600000Y-93000000D02*
X154600000Y-80000000D01*
X152400000Y-93000000D02*
X154600000Y-93000000D01*
X152400000Y-80000000D02*
X152400000Y-93000000D01*
D11*
X148300000Y-90761904D02*
X148347619Y-90857142D01*
X148347619Y-91000000D01*
X148300000Y-91142857D01*
X148204761Y-91238095D01*
X148109523Y-91285714D01*
X147919047Y-91333333D01*
X147776190Y-91333333D01*
X147585714Y-91285714D01*
X147490476Y-91238095D01*
X147395238Y-91142857D01*
X147347619Y-91000000D01*
X147347619Y-90904761D01*
X147395238Y-90761904D01*
X147442857Y-90714285D01*
X147776190Y-90714285D01*
X147776190Y-90904761D01*
X147347619Y-90285714D02*
X148347619Y-90285714D01*
X147347619Y-89714285D01*
X148347619Y-89714285D01*
X147347619Y-89238095D02*
X148347619Y-89238095D01*
X148347619Y-89000000D01*
X148300000Y-88857142D01*
X148204761Y-88761904D01*
X148109523Y-88714285D01*
X147919047Y-88666666D01*
X147776190Y-88666666D01*
X147585714Y-88714285D01*
X147490476Y-88761904D01*
X147395238Y-88857142D01*
X147347619Y-89000000D01*
X147347619Y-89238095D01*
X146214285Y-84752380D02*
X145547619Y-84752380D01*
X146595238Y-84990476D02*
X145880952Y-85228571D01*
X145880952Y-84609523D01*
X145642857Y-84228571D02*
X145595238Y-84180952D01*
X145547619Y-84228571D01*
X145595238Y-84276190D01*
X145642857Y-84228571D01*
X145547619Y-84228571D01*
X146452380Y-83800000D02*
X146500000Y-83752380D01*
X146547619Y-83657142D01*
X146547619Y-83419047D01*
X146500000Y-83323809D01*
X146452380Y-83276190D01*
X146357142Y-83228571D01*
X146261904Y-83228571D01*
X146119047Y-83276190D01*
X145547619Y-83847619D01*
X145547619Y-83228571D01*
X146547619Y-82942857D02*
X145547619Y-82609523D01*
X146547619Y-82276190D01*
X148300000Y-84561904D02*
X148347619Y-84657142D01*
X148347619Y-84800000D01*
X148300000Y-84942857D01*
X148204761Y-85038095D01*
X148109523Y-85085714D01*
X147919047Y-85133333D01*
X147776190Y-85133333D01*
X147585714Y-85085714D01*
X147490476Y-85038095D01*
X147395238Y-84942857D01*
X147347619Y-84800000D01*
X147347619Y-84704761D01*
X147395238Y-84561904D01*
X147442857Y-84514285D01*
X147776190Y-84514285D01*
X147776190Y-84704761D01*
X147347619Y-84085714D02*
X148347619Y-84085714D01*
X147347619Y-83514285D01*
X148347619Y-83514285D01*
X147347619Y-83038095D02*
X148347619Y-83038095D01*
X148347619Y-82800000D01*
X148300000Y-82657142D01*
X148204761Y-82561904D01*
X148109523Y-82514285D01*
X147919047Y-82466666D01*
X147776190Y-82466666D01*
X147585714Y-82514285D01*
X147490476Y-82561904D01*
X147395238Y-82657142D01*
X147347619Y-82800000D01*
X147347619Y-83038095D01*
X150100000Y-91952380D02*
X150147619Y-92047619D01*
X150147619Y-92190476D01*
X150100000Y-92333333D01*
X150004761Y-92428571D01*
X149909523Y-92476190D01*
X149719047Y-92523809D01*
X149576190Y-92523809D01*
X149385714Y-92476190D01*
X149290476Y-92428571D01*
X149195238Y-92333333D01*
X149147619Y-92190476D01*
X149147619Y-92095238D01*
X149195238Y-91952380D01*
X149242857Y-91904761D01*
X149576190Y-91904761D01*
X149576190Y-92095238D01*
X149147619Y-91476190D02*
X150147619Y-91476190D01*
X150147619Y-91095238D01*
X150100000Y-91000000D01*
X150052380Y-90952380D01*
X149957142Y-90904761D01*
X149814285Y-90904761D01*
X149719047Y-90952380D01*
X149671428Y-91000000D01*
X149623809Y-91095238D01*
X149623809Y-91476190D01*
X149147619Y-90476190D02*
X150147619Y-90476190D01*
X150147619Y-89809523D02*
X150147619Y-89619047D01*
X150100000Y-89523809D01*
X150004761Y-89428571D01*
X149814285Y-89380952D01*
X149480952Y-89380952D01*
X149290476Y-89428571D01*
X149195238Y-89523809D01*
X149147619Y-89619047D01*
X149147619Y-89809523D01*
X149195238Y-89904761D01*
X149290476Y-90000000D01*
X149480952Y-90047619D01*
X149814285Y-90047619D01*
X150004761Y-90000000D01*
X150100000Y-89904761D01*
X150147619Y-89809523D01*
X149147619Y-88428571D02*
X149147619Y-89000000D01*
X149147619Y-88714285D02*
X150147619Y-88714285D01*
X150004761Y-88809523D01*
X149909523Y-88904761D01*
X149861904Y-89000000D01*
X150147619Y-87809523D02*
X150147619Y-87714285D01*
X150100000Y-87619047D01*
X150052380Y-87571428D01*
X149957142Y-87523809D01*
X149766666Y-87476190D01*
X149528571Y-87476190D01*
X149338095Y-87523809D01*
X149242857Y-87571428D01*
X149195238Y-87619047D01*
X149147619Y-87714285D01*
X149147619Y-87809523D01*
X149195238Y-87904761D01*
X149242857Y-87952380D01*
X149338095Y-88000000D01*
X149528571Y-88047619D01*
X149766666Y-88047619D01*
X149957142Y-88000000D01*
X150052380Y-87952380D01*
X150100000Y-87904761D01*
X150147619Y-87809523D01*
X151900000Y-91952380D02*
X151947619Y-92047619D01*
X151947619Y-92190476D01*
X151900000Y-92333333D01*
X151804761Y-92428571D01*
X151709523Y-92476190D01*
X151519047Y-92523809D01*
X151376190Y-92523809D01*
X151185714Y-92476190D01*
X151090476Y-92428571D01*
X150995238Y-92333333D01*
X150947619Y-92190476D01*
X150947619Y-92095238D01*
X150995238Y-91952380D01*
X151042857Y-91904761D01*
X151376190Y-91904761D01*
X151376190Y-92095238D01*
X150947619Y-91476190D02*
X151947619Y-91476190D01*
X151947619Y-91095238D01*
X151900000Y-91000000D01*
X151852380Y-90952380D01*
X151757142Y-90904761D01*
X151614285Y-90904761D01*
X151519047Y-90952380D01*
X151471428Y-91000000D01*
X151423809Y-91095238D01*
X151423809Y-91476190D01*
X150947619Y-90476190D02*
X151947619Y-90476190D01*
X151947619Y-89809523D02*
X151947619Y-89619047D01*
X151900000Y-89523809D01*
X151804761Y-89428571D01*
X151614285Y-89380952D01*
X151280952Y-89380952D01*
X151090476Y-89428571D01*
X150995238Y-89523809D01*
X150947619Y-89619047D01*
X150947619Y-89809523D01*
X150995238Y-89904761D01*
X151090476Y-90000000D01*
X151280952Y-90047619D01*
X151614285Y-90047619D01*
X151804761Y-90000000D01*
X151900000Y-89904761D01*
X151947619Y-89809523D01*
X151947619Y-88761904D02*
X151947619Y-88666666D01*
X151900000Y-88571428D01*
X151852380Y-88523809D01*
X151757142Y-88476190D01*
X151566666Y-88428571D01*
X151328571Y-88428571D01*
X151138095Y-88476190D01*
X151042857Y-88523809D01*
X150995238Y-88571428D01*
X150947619Y-88666666D01*
X150947619Y-88761904D01*
X150995238Y-88857142D01*
X151042857Y-88904761D01*
X151138095Y-88952380D01*
X151328571Y-89000000D01*
X151566666Y-89000000D01*
X151757142Y-88952380D01*
X151852380Y-88904761D01*
X151900000Y-88857142D01*
X151947619Y-88761904D01*
X150947619Y-87952380D02*
X150947619Y-87761904D01*
X150995238Y-87666666D01*
X151042857Y-87619047D01*
X151185714Y-87523809D01*
X151376190Y-87476190D01*
X151757142Y-87476190D01*
X151852380Y-87523809D01*
X151900000Y-87571428D01*
X151947619Y-87666666D01*
X151947619Y-87857142D01*
X151900000Y-87952380D01*
X151852380Y-88000000D01*
X151757142Y-88047619D01*
X151519047Y-88047619D01*
X151423809Y-88000000D01*
X151376190Y-87952380D01*
X151328571Y-87857142D01*
X151328571Y-87666666D01*
X151376190Y-87571428D01*
X151423809Y-87523809D01*
X151519047Y-87476190D01*
X149147619Y-84466666D02*
X149623809Y-84800000D01*
X149147619Y-85038095D02*
X150147619Y-85038095D01*
X150147619Y-84657142D01*
X150100000Y-84561904D01*
X150052380Y-84514285D01*
X149957142Y-84466666D01*
X149814285Y-84466666D01*
X149719047Y-84514285D01*
X149671428Y-84561904D01*
X149623809Y-84657142D01*
X149623809Y-85038095D01*
X150147619Y-84133333D02*
X149147619Y-83466666D01*
X150147619Y-83466666D02*
X149147619Y-84133333D01*
X149147619Y-83085714D02*
X150147619Y-83085714D01*
X150147619Y-82847619D01*
X150100000Y-82704761D01*
X150004761Y-82609523D01*
X149909523Y-82561904D01*
X149719047Y-82514285D01*
X149576190Y-82514285D01*
X149385714Y-82561904D01*
X149290476Y-82609523D01*
X149195238Y-82704761D01*
X149147619Y-82847619D01*
X149147619Y-83085714D01*
X151947619Y-85061904D02*
X151947619Y-84490476D01*
X150947619Y-84776190D02*
X151947619Y-84776190D01*
X151947619Y-84252380D02*
X150947619Y-83585714D01*
X151947619Y-83585714D02*
X150947619Y-84252380D01*
X150947619Y-83204761D02*
X151947619Y-83204761D01*
X151947619Y-82966666D01*
X151900000Y-82823809D01*
X151804761Y-82728571D01*
X151709523Y-82680952D01*
X151519047Y-82633333D01*
X151376190Y-82633333D01*
X151185714Y-82680952D01*
X151090476Y-82728571D01*
X150995238Y-82823809D01*
X150947619Y-82966666D01*
X150947619Y-83204761D01*
X153571428Y-92317857D02*
X153571428Y-91984523D01*
X153047619Y-91841666D02*
X153047619Y-92317857D01*
X154047619Y-92317857D01*
X154047619Y-91841666D01*
X153095238Y-91460714D02*
X153047619Y-91317857D01*
X153047619Y-91079761D01*
X153095238Y-90984523D01*
X153142857Y-90936904D01*
X153238095Y-90889285D01*
X153333333Y-90889285D01*
X153428571Y-90936904D01*
X153476190Y-90984523D01*
X153523809Y-91079761D01*
X153571428Y-91270238D01*
X153619047Y-91365476D01*
X153666666Y-91413095D01*
X153761904Y-91460714D01*
X153857142Y-91460714D01*
X153952380Y-91413095D01*
X154000000Y-91365476D01*
X154047619Y-91270238D01*
X154047619Y-91032142D01*
X154000000Y-90889285D01*
X153047619Y-90460714D02*
X154047619Y-90460714D01*
X154047619Y-90079761D01*
X154000000Y-89984523D01*
X153952380Y-89936904D01*
X153857142Y-89889285D01*
X153714285Y-89889285D01*
X153619047Y-89936904D01*
X153571428Y-89984523D01*
X153523809Y-90079761D01*
X153523809Y-90460714D01*
X154047619Y-89555952D02*
X154047619Y-88936904D01*
X153666666Y-89270238D01*
X153666666Y-89127380D01*
X153619047Y-89032142D01*
X153571428Y-88984523D01*
X153476190Y-88936904D01*
X153238095Y-88936904D01*
X153142857Y-88984523D01*
X153095238Y-89032142D01*
X153047619Y-89127380D01*
X153047619Y-89413095D01*
X153095238Y-89508333D01*
X153142857Y-89555952D01*
X153952380Y-88555952D02*
X154000000Y-88508333D01*
X154047619Y-88413095D01*
X154047619Y-88175000D01*
X154000000Y-88079761D01*
X153952380Y-88032142D01*
X153857142Y-87984523D01*
X153761904Y-87984523D01*
X153619047Y-88032142D01*
X153047619Y-88603571D01*
X153047619Y-87984523D01*
X152972619Y-86378571D02*
X153972619Y-86378571D01*
X152972619Y-85807142D01*
X153972619Y-85807142D01*
X153496428Y-85330952D02*
X153496428Y-84997619D01*
X152972619Y-84854761D02*
X152972619Y-85330952D01*
X153972619Y-85330952D01*
X153972619Y-84854761D01*
X153972619Y-84235714D02*
X153972619Y-84045238D01*
X153925000Y-83950000D01*
X153829761Y-83854761D01*
X153639285Y-83807142D01*
X153305952Y-83807142D01*
X153115476Y-83854761D01*
X153020238Y-83950000D01*
X152972619Y-84045238D01*
X152972619Y-84235714D01*
X153020238Y-84330952D01*
X153115476Y-84426190D01*
X153305952Y-84473809D01*
X153639285Y-84473809D01*
X153829761Y-84426190D01*
X153925000Y-84330952D01*
X153972619Y-84235714D01*
X153353571Y-83378571D02*
X153353571Y-82616666D01*
X153972619Y-81711904D02*
X153972619Y-81902380D01*
X153925000Y-81997619D01*
X153877380Y-82045238D01*
X153734523Y-82140476D01*
X153544047Y-82188095D01*
X153163095Y-82188095D01*
X153067857Y-82140476D01*
X153020238Y-82092857D01*
X152972619Y-81997619D01*
X152972619Y-81807142D01*
X153020238Y-81711904D01*
X153067857Y-81664285D01*
X153163095Y-81616666D01*
X153401190Y-81616666D01*
X153496428Y-81664285D01*
X153544047Y-81711904D01*
X153591666Y-81807142D01*
X153591666Y-81997619D01*
X153544047Y-82092857D01*
X153496428Y-82140476D01*
X153401190Y-82188095D01*
X152972619Y-81188095D02*
X153972619Y-81188095D01*
X153258333Y-80854761D01*
X153972619Y-80521428D01*
X152972619Y-80521428D01*
X143747619Y-92966666D02*
X144747619Y-92966666D01*
X144271428Y-92966666D02*
X144271428Y-92395238D01*
X143747619Y-92395238D02*
X144747619Y-92395238D01*
X144271428Y-91919047D02*
X144271428Y-91585714D01*
X143747619Y-91442857D02*
X143747619Y-91919047D01*
X144747619Y-91919047D01*
X144747619Y-91442857D01*
X144033333Y-91061904D02*
X144033333Y-90585714D01*
X143747619Y-91157142D02*
X144747619Y-90823809D01*
X143747619Y-90490476D01*
X143747619Y-90157142D02*
X144747619Y-90157142D01*
X144747619Y-89919047D01*
X144700000Y-89776190D01*
X144604761Y-89680952D01*
X144509523Y-89633333D01*
X144319047Y-89585714D01*
X144176190Y-89585714D01*
X143985714Y-89633333D01*
X143890476Y-89680952D01*
X143795238Y-89776190D01*
X143747619Y-89919047D01*
X143747619Y-90157142D01*
X144271428Y-89157142D02*
X144271428Y-88823809D01*
X143747619Y-88680952D02*
X143747619Y-89157142D01*
X144747619Y-89157142D01*
X144747619Y-88680952D01*
X143747619Y-87680952D02*
X144223809Y-88014285D01*
X143747619Y-88252380D02*
X144747619Y-88252380D01*
X144747619Y-87871428D01*
X144700000Y-87776190D01*
X144652380Y-87728571D01*
X144557142Y-87680952D01*
X144414285Y-87680952D01*
X144319047Y-87728571D01*
X144271428Y-87776190D01*
X144223809Y-87871428D01*
X144223809Y-88252380D01*
X143747619Y-86490476D02*
X144747619Y-86490476D01*
X143747619Y-85919047D01*
X144747619Y-85919047D01*
X144271428Y-85442857D02*
X144271428Y-85109523D01*
X143747619Y-84966666D02*
X143747619Y-85442857D01*
X144747619Y-85442857D01*
X144747619Y-84966666D01*
X144747619Y-84347619D02*
X144747619Y-84157142D01*
X144700000Y-84061904D01*
X144604761Y-83966666D01*
X144414285Y-83919047D01*
X144080952Y-83919047D01*
X143890476Y-83966666D01*
X143795238Y-84061904D01*
X143747619Y-84157142D01*
X143747619Y-84347619D01*
X143795238Y-84442857D01*
X143890476Y-84538095D01*
X144080952Y-84585714D01*
X144414285Y-84585714D01*
X144604761Y-84538095D01*
X144700000Y-84442857D01*
X144747619Y-84347619D01*
X144128571Y-83490476D02*
X144128571Y-82728571D01*
X144747619Y-81823809D02*
X144747619Y-82014285D01*
X144700000Y-82109523D01*
X144652380Y-82157142D01*
X144509523Y-82252380D01*
X144319047Y-82300000D01*
X143938095Y-82300000D01*
X143842857Y-82252380D01*
X143795238Y-82204761D01*
X143747619Y-82109523D01*
X143747619Y-81919047D01*
X143795238Y-81823809D01*
X143842857Y-81776190D01*
X143938095Y-81728571D01*
X144176190Y-81728571D01*
X144271428Y-81776190D01*
X144319047Y-81823809D01*
X144366666Y-81919047D01*
X144366666Y-82109523D01*
X144319047Y-82204761D01*
X144271428Y-82252380D01*
X144176190Y-82300000D01*
X143747619Y-81300000D02*
X144747619Y-81300000D01*
X144033333Y-80966666D01*
X144747619Y-80633333D01*
X143747619Y-80633333D01*
D12*
X139750000Y-79825000D02*
X139875000Y-79950000D01*
X139875000Y-93675000D02*
X139875000Y-79950000D01*
X143400000Y-93675000D02*
X139875000Y-93675000D01*
X143400000Y-79825000D02*
X143400000Y-93675000D01*
X139750000Y-79825000D02*
X143400000Y-79825000D01*
M02*
