G04 #@! TF.GenerationSoftware,KiCad,Pcbnew,no-vcs-found-23a23d3~58~ubuntu16.04.1*
G04 #@! TF.CreationDate,2017-03-20T15:48:47+07:00*
G04 #@! TF.ProjectId,esp32-cellular-shield,65737033322D63656C6C756C61722D73,rev?*
G04 #@! TF.FileFunction,Soldermask,Bot*
G04 #@! TF.FilePolarity,Negative*
%FSLAX46Y46*%
G04 Gerber Fmt 4.6, Leading zero omitted, Abs format (unit mm)*
G04 Created by KiCad (PCBNEW no-vcs-found-23a23d3~58~ubuntu16.04.1) date Mon Mar 20 15:48:47 2017*
%MOMM*%
%LPD*%
G01*
G04 APERTURE LIST*
%ADD10C,0.100000*%
%ADD11C,1.100000*%
%ADD12O,1.700000X2.000000*%
%ADD13O,2.000000X1.700000*%
%ADD14R,1.700000X1.700000*%
%ADD15O,1.700000X1.700000*%
%ADD16C,1.500000*%
%ADD17C,2.200000*%
G04 APERTURE END LIST*
D10*
D11*
X139446000Y-55626000D03*
X153035000Y-56261000D03*
D12*
X136881000Y-101492100D03*
X139421000Y-101492100D03*
X141961000Y-101492100D03*
X144501000Y-101492100D03*
X147041000Y-101492100D03*
X149581000Y-101492100D03*
X152121000Y-101492100D03*
X154661000Y-101492100D03*
X159741000Y-101492100D03*
X162281000Y-101492100D03*
X164821000Y-101492100D03*
X167361000Y-101492100D03*
X169901000Y-101492100D03*
X172441000Y-101492100D03*
X172441000Y-53232100D03*
X169901000Y-53232100D03*
X167361000Y-53232100D03*
X164821000Y-53232100D03*
X162281000Y-53232100D03*
X159741000Y-53232100D03*
X157201000Y-53232100D03*
X154661000Y-53232100D03*
X150851000Y-53232100D03*
X148311000Y-53232100D03*
X145771000Y-53232100D03*
X143231000Y-53232100D03*
X140691000Y-53232100D03*
X138151000Y-53232100D03*
X135611000Y-53232100D03*
X133071000Y-53232100D03*
X130531000Y-53232100D03*
X127991000Y-53232100D03*
D13*
X113386000Y-72282100D03*
X113386000Y-74822100D03*
X113386000Y-77362100D03*
X113386000Y-79902100D03*
D14*
X141750000Y-91948000D03*
D15*
X141750000Y-89408000D03*
X141750000Y-86868000D03*
X141750000Y-84328000D03*
X141750000Y-81788000D03*
D11*
X154898000Y-60164000D03*
X154898000Y-74164000D03*
D16*
X111425000Y-62050000D03*
X111425000Y-67050000D03*
D17*
X113425000Y-60875000D03*
X113425000Y-68225000D03*
M02*
